<svg width="317" height="42" viewBox="0 0 317 42" fill="none" xmlns="http://www.w3.org/2000/svg">
<path d="M316 1L312.5 7.86891C309 14.7378 302 28.4757 295 27.8441C288 27.2125 281 12.2115 274 9.27183C267 6.33221 260 15.454 253 18.5252C246 21.5964 239 18.6171 232 20.4358C225 22.2545 218 28.8712 211 27.4548C204 26.0385 197 16.589 190 16.8764C183 17.1637 176 27.1879 169 33.7857C162 40.3835 155 43.555 148 38.5284C141 33.5017 134 20.2769 127 17.7723C120 15.2678 113 23.4835 106 25.3556C99 27.2278 92 22.7562 85 23.7059C78 24.6555 71 31.0264 64 32.3765C57 33.7267 50 30.0562 43 30.4347C36 30.8131 29 35.2404 22 32.733C15 30.2255 8.00003 20.7832 4.50003 16.0621L1 11.341" stroke="#00CE08" stroke-width="2" stroke-linecap="round"/>
</svg>
